<svg width="44" height="45" viewBox="0 0 44 45" fill="none" xmlns="http://www.w3.org/2000/svg">
<g filter="url(#filter0_d_1249_5095)">
<rect x="2" y="1.0498" width="40" height="40" rx="8" fill="white" shape-rendering="crispEdges"/>
<rect x="2.5" y="1.5498" width="39" height="39" rx="7.5" stroke="#ADB5E3" shape-rendering="crispEdges"/>
<path d="M18.667 24.3831L22.0003 21.0498M22.0003 21.0498L25.3337 24.3831M22.0003 21.0498V28.5498M28.667 25.0022C29.6849 24.1615 30.3337 22.8898 30.3337 21.4665C30.3337 18.9352 28.2816 16.8831 25.7503 16.8831C25.5682 16.8831 25.3979 16.7881 25.3054 16.6313C24.2187 14.7872 22.2124 13.5498 19.917 13.5498C16.4652 13.5498 13.667 16.348 13.667 19.7998C13.667 21.5216 14.3632 23.0807 15.4894 24.2111" stroke="#31315B" stroke-width="1.66667" stroke-linecap="round" stroke-linejoin="round"/>
</g>
<defs>
<filter id="filter0_d_1249_5095" x="0" y="0.0498047" width="44" height="44" filterUnits="userSpaceOnUse" color-interpolation-filters="sRGB">
<feFlood flood-opacity="0" result="BackgroundImageFix"/>
<feColorMatrix in="SourceAlpha" type="matrix" values="0 0 0 0 0 0 0 0 0 0 0 0 0 0 0 0 0 0 127 0" result="hardAlpha"/>
<feOffset dy="1"/>
<feGaussianBlur stdDeviation="1"/>
<feComposite in2="hardAlpha" operator="out"/>
<feColorMatrix type="matrix" values="0 0 0 0 0.0627451 0 0 0 0 0.0941176 0 0 0 0 0.156863 0 0 0 0.05 0"/>
<feBlend mode="normal" in2="BackgroundImageFix" result="effect1_dropShadow_1249_5095"/>
<feBlend mode="normal" in="SourceGraphic" in2="effect1_dropShadow_1249_5095" result="shape"/>
</filter>
</defs>
</svg>
