<svg width="110" height="113" viewBox="0 0 110 113" fill="none" xmlns="http://www.w3.org/2000/svg">
<g filter="url(#filter0_d_1246_5107)">
<path d="M42.75 16.0498C42.75 14.2549 44.2051 12.7998 46 12.7998H62C62.1212 12.7998 62.2375 12.848 62.3232 12.9337L73.1161 23.7266C73.2018 23.8123 73.25 23.9286 73.25 24.0498V48.0498C73.25 49.8447 71.7949 51.2998 70 51.2998H46C44.2051 51.2998 42.75 49.8447 42.75 48.0498V16.0498Z" fill="white" stroke="#D0D5DD" stroke-width="1.5"/>
<path d="M62 12.5498V20.0498C62 22.2589 63.7909 24.0498 66 24.0498H73.5" stroke="#D0D5DD" stroke-width="1.5"/>
<rect x="36" y="30.0498" width="26" height="16" rx="2" fill="#5757BC"/>
<path d="M42.6515 34.7771H44.1713V39.8481C44.1713 40.3169 44.066 40.724 43.8553 41.0697C43.647 41.4153 43.3569 41.6817 42.9853 41.8687C42.6136 42.0557 42.1815 42.1492 41.6891 42.1492C41.2511 42.1492 40.8534 42.0723 40.4959 41.9184C40.1408 41.7622 39.8591 41.5254 39.6507 41.2082C39.4424 40.8886 39.3394 40.4873 39.3418 40.0044H40.8723C40.8771 40.1961 40.9161 40.3606 40.9895 40.498C41.0653 40.6329 41.1683 40.7371 41.2985 40.8105C41.431 40.8815 41.5873 40.917 41.7672 40.917C41.9566 40.917 42.1164 40.8767 42.2466 40.7963C42.3792 40.7134 42.4798 40.5927 42.5485 40.434C42.6171 40.2754 42.6515 40.0801 42.6515 39.8481V34.7771ZM45.4426 42.0498V34.7771H48.312C48.8636 34.7771 49.3335 34.8824 49.7218 35.0931C50.11 35.3015 50.406 35.5915 50.6096 35.9632C50.8155 36.3325 50.9185 36.7586 50.9185 37.2416C50.9185 37.7245 50.8143 38.1507 50.606 38.52C50.3977 38.8893 50.0958 39.1769 49.7005 39.3829C49.3075 39.5889 48.8316 39.6919 48.2729 39.6919H46.4441V38.4596H48.0243C48.3203 38.4596 48.5641 38.4087 48.7559 38.3069C48.95 38.2027 49.0944 38.0595 49.1891 37.8772C49.2862 37.6926 49.3347 37.4807 49.3347 37.2416C49.3347 37.0001 49.2862 36.7894 49.1891 36.6095C49.0944 36.4272 48.95 36.2863 48.7559 36.1869C48.5617 36.0851 48.3155 36.0342 48.0172 36.0342H46.9803V42.0498H45.4426ZM56.7397 37.1279C56.69 36.9551 56.6201 36.8024 56.5302 36.6698C56.4402 36.5349 56.3301 36.4213 56.1999 36.3289C56.0721 36.2342 55.9253 36.162 55.7596 36.1123C55.5962 36.0626 55.4151 36.0377 55.2163 36.0377C54.8446 36.0377 54.5179 36.1301 54.2362 36.3147C53.9568 36.4994 53.739 36.7681 53.5827 37.1208C53.4265 37.4712 53.3484 37.8997 53.3484 38.4063C53.3484 38.913 53.4253 39.3438 53.5792 39.699C53.7331 40.0541 53.9509 40.3251 54.2326 40.5122C54.5143 40.6968 54.8469 40.7892 55.2305 40.7892C55.5785 40.7892 55.8756 40.7276 56.1218 40.6045C56.3704 40.479 56.5598 40.3026 56.69 40.0754C56.8226 39.8481 56.8888 39.5794 56.8888 39.2693L57.2013 39.3154H55.3263V38.1578H58.3697V39.074C58.3697 39.7132 58.2347 40.2624 57.9648 40.7217C57.695 41.1786 57.3233 41.5313 56.8498 41.7799C56.3763 42.0261 55.8342 42.1492 55.2234 42.1492C54.5415 42.1492 53.9426 41.9989 53.4265 41.6982C52.9104 41.3952 52.5079 40.9655 52.2191 40.4092C51.9326 39.8505 51.7894 39.1876 51.7894 38.4205C51.7894 37.8311 51.8746 37.3055 52.0451 36.8438C52.2179 36.3798 52.4594 35.9868 52.7695 35.6649C53.0797 35.3429 53.4407 35.0979 53.8526 34.9298C54.2646 34.7617 54.7108 34.6776 55.1914 34.6776C55.6033 34.6776 55.9869 34.738 56.342 34.8588C56.6971 34.9771 57.012 35.1452 57.2866 35.363C57.5636 35.5808 57.7897 35.8401 57.9648 36.1407C58.14 36.439 58.2525 36.7681 58.3022 37.1279H56.7397Z" fill="white"/>
</g>
<defs>
<filter id="filter0_d_1246_5107" x="-1" y="0.0498047" width="112" height="112" filterUnits="userSpaceOnUse" color-interpolation-filters="sRGB">
<feFlood flood-opacity="0" result="BackgroundImageFix"/>
<feColorMatrix in="SourceAlpha" type="matrix" values="0 0 0 0 0 0 0 0 0 0 0 0 0 0 0 0 0 0 127 0" result="hardAlpha"/>
<feMorphology radius="12" operator="erode" in="SourceAlpha" result="effect1_dropShadow_1246_5107"/>
<feOffset dy="24"/>
<feGaussianBlur stdDeviation="24"/>
<feComposite in2="hardAlpha" operator="out"/>
<feColorMatrix type="matrix" values="0 0 0 0 0.0625882 0 0 0 0 0.0926346 0 0 0 0 0.15702 0 0 0 0.18 0"/>
<feBlend mode="normal" in2="BackgroundImageFix" result="effect1_dropShadow_1246_5107"/>
<feBlend mode="normal" in="SourceGraphic" in2="effect1_dropShadow_1246_5107" result="shape"/>
</filter>
</defs>
</svg>
