<svg width="1277" height="419" viewBox="0 0 1277 419" fill="none" xmlns="http://www.w3.org/2000/svg">
<path d="M74.7137 2.93359H54.1506V21.6689H74.7137V2.93359Z" fill="#2B2765"/>
<path d="M37.1976 2.93359H16.6699V21.6689H37.1976V2.93359Z" fill="#2B2765"/>
<path d="M79.4918 53.3068C71.0683 45.247 59.5657 41.1465 45.3733 41.1465C31.1809 41.1465 20.4569 45.2824 12.2812 53.4128C4.14093 61.5433 0 72.7491 0 86.6415C0 100.534 4.17633 111.811 12.4936 119.87C21.0232 128.001 32.4196 132.207 46.3643 132.207C60.309 132.207 71.5284 128.001 79.8457 119.729C88.2337 111.28 92.3393 100.428 92.3393 86.4648C92.3393 72.5017 87.986 61.2605 79.4564 53.3068H79.4918ZM64.0252 106.756C59.7073 112.305 53.6906 115.063 45.5503 115.063C37.41 115.063 31.7118 112.235 27.6416 106.685C23.8192 101.877 21.8726 95.3729 21.8726 87.4546C21.8726 67.9416 29.836 58.079 45.5503 58.079C61.2646 58.079 69.8296 67.9769 69.8296 87.4546C69.8296 95.3729 67.883 101.842 64.0252 106.756Z" fill="#2B2765"/>
<path d="M152.365 46.4844V116.017C152.365 133.763 148.047 146.171 139.128 153.947C131.413 160.911 118.601 164.623 101.046 164.906V146.559C118.99 145.888 128.44 136.167 128.44 118.386V46.4844H152.33H152.365Z" fill="#2B2765"/>
<path d="M208.462 8.4834H184.749V132.243H208.462V8.4834Z" fill="#2B2765"/>
<path d="M538.888 107.498V132.207H245.908V109.725H515.175V107.71C515.175 78.7938 499.212 65.8205 463.501 65.6791H245.872V46.5195H465.837C481.658 46.6963 492.594 47.8982 499.106 50.1605C525.474 59.4575 538.852 78.7231 538.852 107.533L538.888 107.498Z" fill="#2B2765"/>
<path d="M99.7717 204.957C94.4628 195.66 86.7826 188.413 77.0497 183.393C67.1751 178.338 55.6371 175.758 42.5773 175.758H0V299.164H42.5773C55.6018 299.164 67.1751 296.583 77.0497 291.493C86.7826 286.473 94.4628 279.297 99.7717 270.142C105.116 260.951 107.806 249.992 107.806 237.62C107.806 225.247 105.116 214.289 99.7717 204.957ZM74.1829 269.929C70.3251 273.747 65.6533 276.646 60.2382 278.555C54.7877 280.464 48.6294 281.418 41.6571 281.418H21.5541V193.221H41.6571C55.5664 193.221 66.5381 197.18 74.2183 205.063C81.8985 212.91 85.7562 223.869 85.7562 237.62C85.7562 251.371 81.8985 262.259 74.2183 269.929H74.1829Z" fill="#2B2765"/>
<path d="M204.18 202.023V220.581L200.535 215.632C197.314 211.249 192.96 207.608 187.581 204.674C182.237 201.846 175.901 200.361 168.717 200.361C160.47 200.361 152.931 202.376 146.278 206.441C139.624 210.507 134.315 216.375 130.422 223.904C126.493 231.469 124.511 240.306 124.511 250.169C124.511 260.032 126.493 269.116 130.422 276.717C134.315 284.352 139.659 290.291 146.348 294.462C152.967 298.598 160.47 300.719 168.54 300.719C175.724 300.719 182.13 299.234 187.616 296.3C193.102 293.366 197.42 289.619 200.535 285.165L204.215 279.827V299.128H225.911V202.023H204.215H204.18ZM200.287 267.526C197.703 272.263 194.093 276.01 189.669 278.555C185.21 281.065 180.432 282.373 175.3 282.373C170.168 282.373 165.567 281.029 161.178 278.449C156.825 275.868 153.25 272.051 150.596 267.172C147.941 262.294 146.561 256.638 146.561 250.24C146.561 243.841 147.941 238.15 150.596 233.449C153.285 228.712 156.789 225 161.143 222.561C169.778 217.612 180.785 217.577 189.669 222.632C194.093 225.177 197.668 228.889 200.287 233.661C202.87 238.362 204.18 244.089 204.18 250.593C204.18 257.098 202.87 262.824 200.287 267.526Z" fill="#2B2765"/>
<path d="M307.597 200.609V223.339H302.89C294.36 223.339 287.777 225.46 283.318 229.525C278.823 233.697 276.522 240.837 276.522 250.735V299.129H254.968V202.023H276.522V222.844L280.274 216.764C283.389 211.709 287.494 207.715 292.449 204.851C296.908 202.306 301.97 200.892 307.597 200.609Z" fill="#2B2765"/>
<path d="M401.989 202.023V220.581L398.308 215.632C395.087 211.249 390.77 207.608 385.355 204.674C380.046 201.846 373.675 200.361 366.49 200.361C358.244 200.361 350.705 202.376 344.051 206.441C337.398 210.507 332.089 216.375 328.195 223.904C324.302 231.469 322.32 240.306 322.32 250.169C322.32 260.032 324.302 269.046 328.195 276.717C332.089 284.282 337.433 290.291 344.122 294.462C350.776 298.598 358.244 300.719 366.349 300.719C373.533 300.719 379.939 299.234 385.39 296.3C390.876 293.366 395.194 289.619 398.308 285.165L402.06 279.863V299.128H423.755V202.023H402.06H401.989ZM398.06 267.526C395.477 272.263 391.902 276.01 387.443 278.555C383.019 281.065 378.205 282.373 373.073 282.373C367.941 282.373 363.376 281.029 358.987 278.449C354.598 275.798 351.024 272.051 348.369 267.172C345.715 262.294 344.405 256.638 344.405 250.24C344.405 243.841 345.75 238.15 348.405 233.449C351.059 228.712 354.598 225 358.916 222.561C367.552 217.612 378.559 217.577 387.443 222.632C391.902 225.177 395.477 228.889 398.06 233.661C400.644 238.362 401.989 244.089 401.989 250.593C401.989 257.098 400.644 262.824 398.06 267.526Z" fill="#2B2765"/>
<path d="M545.258 241.827V299.128H523.704V245.255C523.704 236.736 521.51 230.055 517.121 225.354C512.732 220.617 506.68 218.213 499.177 218.213C491.674 218.213 485.445 220.617 480.985 225.354C476.561 230.02 474.296 236.736 474.296 245.255V299.128H452.777V168.052H474.296V218.673L477.941 213.794C481.021 209.694 485.162 206.442 490.329 204.108C495.532 201.74 501.407 200.538 507.777 200.538C515.068 200.538 521.616 202.164 527.243 205.31C532.835 208.421 537.259 213.123 540.445 219.238C543.595 225.424 545.223 233.025 545.223 241.791L545.258 241.827Z" fill="#2B2765"/>
<path d="M867.933 111.599V267.809V319.313V371.808L1054.77 419V319.313V267.809V158.755L867.933 111.599Z" fill="#FAAC48"/>
<path d="M1172.7 302.416H948.521V2.93359L1172.7 59.5285V302.416Z" fill="#5757BC"/>
<path d="M1277 302.417H1052.82V103.822L1277 160.417V302.417Z" fill="#B68FD8"/>
<path d="M867.933 302.417H643.756V103.822L867.933 160.417V302.417Z" fill="#5757BC"/>
<path d="M643.756 0V55.0041L867.933 111.599V0H643.756Z" fill="#B68FD8"/>
</svg>
